<?xml version="1.0" encoding="UTF-8"?>
<svg id="Layer_1" xmlns="http://www.w3.org/2000/svg" version="1.1" viewBox="0 0 216.3 37.78">
  <!-- Generator: Adobe Illustrator 30.5.1, SVG Export Plug-In . SVG Version: 2.1.4 Build 3)  -->
  <defs>
    <style>
      .st0 {
        fill: #bb4a82;
      }

      .st0, .st1, .st2, .st3, .st4 {
        isolation: isolate;
        opacity: .9;
      }

      .st1 {
        fill: #f2897a;
      }

      .st2 {
        fill: #6e2c9c;
      }

      .st3 {
        fill: #8d3a90;
      }

      .st5 {
        fill: #2d2d2d;
      }

      .st4 {
        fill: #d96b74;
      }
    </style>
  </defs>
  <circle class="st4" cx="11.79" cy="20.1" r="4.68"/>
  <circle class="st0" cx="7.02" cy="9.87" r="4.07"/>
  <circle class="st2" cx="27.82" cy="27.12" r="4.16"/>
  <circle class="st4" cx="29.03" cy="24.43" r="4.42"/>
  <circle class="st3" cx="23.57" cy="32.15" r="5.11"/>
  <circle class="st1" cx="18.37" cy="7.88" r="4.16"/>
  <circle class="st2" cx="19.07" cy="25.73" r="3.73"/>
  <circle class="st3" cx="15.51" cy="27.9" r="4.77"/>
  <circle class="st3" cx="18.81" cy="3.81" r="3.81"/>
  <circle class="st0" cx="27.47" cy="24.95" r="5.98"/>
  <circle class="st0" cx="27.65" cy="14.73" r="3.81"/>
  <circle class="st0" cx="26.52" cy="15.16" r="3.55"/>
  <circle class="st0" cx="27.5" cy="6.67" r="3.55"/>
  <circle class="st2" cx="15.34" cy="14.9" r="4.77"/>
  <circle class="st4" cx="18.46" cy="32.41" r="5.37"/>
  <circle class="st2" cx="19.33" cy="19.41" r="5.37"/>
  <circle class="st4" cx="24.35" cy="19.58" r="4.94"/>
  <circle class="st1" cx="4.85" cy="27.21" r="4.85"/>
  <g>
    <path class="st5" d="M52.81,31.52c.8-.82,1.2-1.96,1.2-3.41v-2.69h-.18c-.18.41-.42.79-.75,1.13s-.71.65-1.15.91-.94.47-1.49.62-1.15.23-1.79.23c-1.36,0-2.59-.31-3.7-.92s-1.98-1.51-2.63-2.67-.97-2.56-.97-4.17v-2.87c0-1.63.32-3.03.97-4.19s1.52-2.06,2.62-2.68,2.33-.93,3.69-.93c.93,0,1.75.15,2.49.45s1.34.68,1.84,1.15.84.96,1.04,1.48h.16v-2.79h3.04v17.93c0,1.28-.2,2.38-.61,3.3s-.97,1.69-1.7,2.29-1.58,1.04-2.58,1.32-2.08.42-3.26.42c-1.58,0-2.9-.24-3.95-.71s-1.85-1.1-2.4-1.86-.87-1.6-.95-2.49h3.23c.08.43.3.83.65,1.2s.82.65,1.42.87,1.29.33,2.1.33c1.63,0,2.84-.41,3.65-1.23v-.02ZM46.84,13.32c-.73.47-1.29,1.14-1.69,1.99-.4.85-.6,1.84-.6,2.96v1.74c0,1.11.21,2.09.62,2.94s1,1.51,1.74,1.99,1.59.71,2.54.71c1,0,1.83-.24,2.5-.73s1.18-1.12,1.53-1.89.52-1.59.52-2.46v-2.79c0-.9-.18-1.75-.54-2.53s-.88-1.42-1.56-1.91-1.51-.73-2.48-.73-1.86.24-2.58.71Z"/>
    <path class="st5" d="M63.76,27.4c-1.12-1.04-1.68-2.41-1.68-4.12,0-1.62.55-2.93,1.66-3.93s2.72-1.5,4.84-1.5h4.83v-1.83c0-1.18-.35-2.06-1.05-2.62s-1.64-.84-2.82-.84c-.79,0-1.43.09-1.92.28s-.88.45-1.16.77-.48.71-.61,1.14h-3.08c.07-.79.27-1.48.61-2.08s.79-1.11,1.38-1.53,1.29-.73,2.11-.95,1.75-.33,2.78-.33c1.28,0,2.44.2,3.49.6s1.89,1.05,2.52,1.95.95,2.11.95,3.62v12.62h-3.06v-2.46h-.14c-.3.49-.69.95-1.17,1.37s-1.05.76-1.73,1.01-1.48.38-2.39.38c-1.79,0-3.25-.52-4.37-1.56h.01ZM71.26,25.76c.66-.35,1.18-.81,1.57-1.41s.59-1.27.59-2.03v-2.06h-4.57c-1.25,0-2.15.28-2.7.83-.54.55-.82,1.24-.82,2.07,0,1.07.37,1.85,1.12,2.36s1.6.76,2.56.76c.84,0,1.59-.17,2.25-.52Z"/>
    <path class="st5" d="M97.78,28.66h-3.15v-3.08h-.18c-.18.5-.49,1.01-.94,1.53s-1.05.95-1.81,1.31-1.67.54-2.75.54c-1.23,0-2.32-.2-3.28-.6s-1.7-1.03-2.24-1.91-.81-2.02-.81-3.45v-12.83h3.18v11.97c0,1.02.18,1.83.55,2.42s.86,1.01,1.46,1.26,1.27.37,2.01.37c.91,0,1.73-.2,2.44-.59s1.28-.92,1.7-1.59.62-1.39.62-2.18v-11.65h3.18v18.49h.02Z"/>
    <path class="st5" d="M104.14,3.4h3.18v25.26h-3.18V3.4Z"/>
    <path class="st5" d="M114.73,5.58h3.15v4.64h4.18v2.58h-4.18v10.65c0,1.09.22,1.82.65,2.19s1.21.55,2.34.55c.22,0,.49-.01.79-.04s.53-.04.67-.05v2.55c-.13.04-.45.07-.97.11s-.95.05-1.3.05c-1.46,0-2.58-.19-3.35-.57s-1.29-.97-1.57-1.76-.42-1.8-.42-3.01v-10.67h-2.83v-2.58h2.85v-4.64h0Z"/>
    <path class="st5" d="M138.45,10.82c1.2.64,2.15,1.57,2.84,2.79s1.04,2.69,1.04,4.4v2.74c0,1.73-.35,3.21-1.04,4.44s-1.64,2.16-2.84,2.79-2.57.96-4.1.96-2.94-.32-4.14-.95-2.14-1.56-2.83-2.79-1.03-2.71-1.03-4.46v-2.72c0-1.68.35-3.12,1.04-4.34.69-1.22,1.64-2.16,2.85-2.83s2.58-1,4.11-1,2.9.32,4.1.96h0ZM131.79,13.3c-.72.49-1.28,1.16-1.67,2.02-.39.86-.59,1.85-.59,2.98v2.23c0,1.15.19,2.15.56,3.01s.92,1.52,1.64,2,1.6.72,2.63.72,1.88-.24,2.59-.72,1.25-1.15,1.62-2,.55-1.86.55-3.01v-2.23c0-1.14-.19-2.13-.57-2.99s-.93-1.53-1.64-2.01-1.56-.73-2.55-.73-1.85.24-2.58.73h.01Z"/>
    <path class="st5" d="M147.67,10.16h3.15v3.36h.18c.15-.49.42-1.02.81-1.58s.96-1.05,1.72-1.46,1.79-.62,3.08-.62c1.86,0,3.38.51,4.54,1.53s1.74,2.57,1.74,4.64v12.62h-3.18v-11.62c0-.97-.16-1.78-.48-2.43s-.78-1.14-1.38-1.47-1.31-.49-2.14-.49c-1.08,0-1.98.25-2.7.76s-1.26,1.19-1.61,2.06-.53,1.83-.53,2.9v10.3h-3.18V10.16h-.02Z"/>
    <path class="st5" d="M173.95,3.41h1.86v25.24h-1.86V3.41Z"/>
    <path class="st5" d="M183.19,27.47c-1.11-1-1.66-2.33-1.66-4,0-1.55.53-2.8,1.59-3.76s2.62-1.44,4.68-1.44h5.36v-2.34c0-1.45-.42-2.51-1.27-3.18s-1.97-1-3.35-1c-.98,0-1.78.14-2.4.42s-1.08.63-1.4,1.05-.53.84-.63,1.27h-1.81c.05-.64.22-1.24.53-1.78s.73-1,1.27-1.4,1.19-.69,1.95-.91,1.63-.32,2.6-.32c1.22,0,2.31.2,3.27.59s1.72,1.01,2.28,1.85.83,1.92.83,3.23v12.88h-1.81v-2.81h-.09c-.21.42-.55.88-1.03,1.36s-1.09.9-1.85,1.25-1.67.52-2.75.52c-1.77,0-3.21-.5-4.32-1.5v.02ZM190.52,26.67c.8-.41,1.44-.98,1.92-1.71s.72-1.57.72-2.53v-2.57h-5.34c-1.54,0-2.65.34-3.33,1.01-.69.67-1.03,1.52-1.03,2.54,0,1.24.42,2.2,1.27,2.87s1.88,1,3.11,1c.98,0,1.88-.21,2.68-.62h0Z"/>
    <path class="st5" d="M206.72,28.53c-.79-.29-1.46-.71-2.02-1.24s-.97-1.15-1.23-1.85h-.11v3.22h-1.79V3.41h1.86v10.34h.11c.14-.52.39-1,.75-1.44s.8-.83,1.33-1.17,1.11-.59,1.74-.77,1.29-.27,1.97-.27c1.41,0,2.63.32,3.67.96s1.85,1.53,2.43,2.67.87,2.49.87,4.03v3.5c0,1.55-.29,2.9-.87,4.06s-1.4,2.06-2.46,2.7-2.3.96-3.72.96c-.9,0-1.75-.15-2.53-.44h0ZM211.93,26.49c.8-.53,1.42-1.27,1.85-2.23s.65-2.11.65-3.45v-2.58c0-1.32-.22-2.47-.66-3.44s-1.06-1.71-1.86-2.24-1.77-.79-2.89-.79-2.07.26-2.92.77-1.5,1.24-1.97,2.17-.7,2.02-.7,3.26v3.27c0,1.17.24,2.21.73,3.12s1.15,1.62,2,2.14,1.82.78,2.92.78,2.05-.26,2.86-.79h0Z"/>
  </g>
</svg>